<?xml version="1.0" standalone="no"?>
<!DOCTYPE svg PUBLIC "-//W3C//DTD SVG 20010904//EN"
 "http://www.w3.org/TR/2001/REC-SVG-20010904/DTD/svg10.dtd">
<svg version="1.0" xmlns="http://www.w3.org/2000/svg"
 width="552.000000pt" height="552.000000pt" viewBox="0 0 552.000000 552.000000"
 preserveAspectRatio="xMidYMid meet">
<metadata>
Created by potrace 1.14, written by Peter Selinger 2001-2017
</metadata>
<g transform="translate(0.000000,552.000000) scale(0.100000,-0.100000)"
fill="#000000" stroke="none">
<path d="M2415 5511 c-27 -5 -68 -11 -90 -14 -290 -43 -588 -143 -865 -289
-112 -59 -338 -203 -392 -250 -14 -13 -39 -32 -54 -43 -74 -54 -283 -257 -354
-343 -19 -24 -47 -56 -61 -72 -33 -36 -182 -250 -221 -316 -57 -98 -177 -352
-217 -459 -68 -184 -122 -401 -148 -590 -10 -77 -10 -662 0 -734 11 -73 44
-241 63 -316 71 -285 236 -646 404 -884 25 -35 52 -73 60 -86 15 -22 67 -85
130 -159 41 -48 237 -246 243 -246 2 0 22 -16 43 -36 21 -21 72 -62 114 -93
41 -31 77 -59 80 -62 3 -3 10 -8 15 -10 6 -2 49 -30 97 -62 107 -71 283 -164
419 -221 95 -39 267 -100 315 -111 10 -2 53 -13 94 -24 41 -11 91 -23 110 -26
19 -3 42 -8 50 -10 15 -4 48 -9 135 -21 27 -3 61 -8 75 -11 14 -2 126 -5 250
-7 251 -4 428 13 633 60 62 14 119 27 127 29 47 10 254 82 338 116 231 96 478
244 681 407 85 68 331 302 331 315 0 3 13 19 29 36 40 43 181 229 181 239 0 5
9 18 20 30 11 11 28 36 39 54 10 18 38 67 61 108 146 254 269 593 314 865 10
55 19 110 21 122 20 121 27 484 13 633 -58 577 -295 1129 -668 1554 -155 177
-441 425 -576 500 -16 9 -58 35 -94 57 -91 58 -326 171 -443 214 -135 49 -315
99 -444 124 -59 11 -124 23 -143 27 -52 10 -657 14 -715 5z"/>
</g>
</svg>
